/vscmnt/brussel_pixiu_data/_data_brussel/112/vsc11236/PredSimResults/SUBJ06opt3D/expIG/worker_13.mot
version=1
nRows=7
nColumns=50
inDegrees=yes
endheader
                time	         pelvis_tilt	         pelvis_list	     pelvis_rotation	           pelvis_tx	           pelvis_ty	           pelvis_tz	       hip_flexion_r	     hip_adduction_r	      hip_rotation_r	        knee_angle_r	       ankle_angle_r	         mtp_angle_r	       hip_flexion_l	     hip_adduction_l	      hip_rotation_l	        knee_angle_l	       ankle_angle_l	         mtp_angle_l	    lumbar_extension	      lumbar_bending	     lumbar_rotation	 ercspn_r/activation	 intobl_r/activation	 extobl_r/activation	    abd_r/activation	    add_r/activation	hamstrings_r/activation	bifemsh_r/activation	glut_max_r/activation	iliopsoas_r/activation	rect_fem_r/activation	  vasti_r/activation	gastroc_r/activation	 soleus_r/activation	tib_ant_r/activation	 ercspn_l/activation	 intobl_l/activation	 extobl_l/activation	    abd_l/activation	    add_l/activation	hamstrings_l/activation	bifemsh_l/activation	glut_max_l/activation	iliopsoas_l/activation	rect_fem_l/activation	  vasti_l/activation	gastroc_l/activation	 soleus_l/activation	tib_ant_l/activation	
          0.82594962	         -6.08698478	         -2.42838756	          6.80790125	          1.48670931	          0.93500637	         -0.00552584	         35.12171041	         -0.06981673	         -7.86700315	        -24.04109732	          4.59873247	          0.42120118	        -17.01036267	         -2.65009401	         -4.68334984	         -9.54090693	         -7.33530982	         43.48492753	         -9.35565924	          3.71033598	        -13.99458052	          0.24104027	          0.07480967	          0.00999999	          0.01137657	          0.27242112	          0.46677469	          0.20064500	          0.00999999	          0.22474572	          0.01137657	          0.00999999	          0.01472431	          0.01137657	          0.77194328	          0.18311264	          0.00999999	          0.00999999	          0.01334219	          0.27674548	          0.07163226	          0.36688937	          0.01472431	          0.81358223	          0.06618141	          0.01703665	          0.31593652	          0.15231685	          0.00999999	
          0.83420912	         -6.03342621	         -2.45392519	          6.74200849	          1.50421304	          0.93181337	         -0.00483456	         34.78631909	          0.30479824	         -7.51597900	        -24.30023992	          3.97890026	          0.43765965	        -17.27728682	         -2.86666741	         -4.99338624	        -11.03672907	         -8.01644365	         44.24223580	         -9.05990076	          3.89927505	        -14.30385232	          0.21450769	          0.06575760	          0.00999999	          0.00999999	          0.39903792	          0.41029429	          0.17636667	          0.12737566	          0.19755117	          0.00999999	          0.00999999	          0.01294265	          0.00999999	          0.85292671	          0.20454723	          0.00999999	          0.00999999	          0.01172776	          0.25354987	          0.06296465	          0.32249523	          0.01294265	          0.82941404	          0.05817336	          0.01497519	          0.27770775	          0.13388629	          0.00999999	
          0.84246861	         -5.97125358	         -2.48632426	          6.65414101	          1.52177302	          0.92840268	         -0.00411330	         34.57492054	          0.63389061	         -7.12841595	        -25.71317018	          3.55383122	          0.33822788	        -17.27723824	         -3.11518394	         -5.30900126	        -13.06269242	         -8.58583137	         44.81953474	         -8.75979847	          4.09529852	        -14.55144214	          0.18855196	          0.05780083	          0.00999999	          0.00999999	          0.43180257	          0.36064810	          0.15502605	          0.12216643	          0.17364720	          0.00999999	          0.10710097	          0.01137657	          0.00999999	          0.74972136	          0.19467310	          0.01088166	          0.00999999	          0.01030869	          0.33668704	          0.07873882	          0.28347285	          0.01137657	          0.72905376	          0.05113430	          0.01316317	          0.24410472	          0.11768586	          0.00999999	
          0.85072811	         -5.90387077	         -2.55143149	          6.54252620	          1.53934934	          0.92489738	         -0.00337774	         34.35574943	          0.93704721	         -6.77669888	        -27.52908176	          4.34230082	          0.32032635	        -17.00557930	         -3.42309204	         -5.64029695	        -15.59764428	         -9.09810872	         45.12416681	         -8.45696144	          4.32907976	        -14.73186844	          0.16573690	          0.05080685	          0.00999999	          0.16417642	          0.37955384	          0.31700916	          0.13626768	          0.14830529	          0.15263564	          0.00999999	          0.25720535	          0.00999999	          0.00999999	          0.65900401	          0.23221582	          0.00999999	          0.00999999	          0.00999999	          0.29594743	          0.06921131	          0.24917223	          0.00999999	          0.64083722	          0.04494698	          0.01157041	          0.21456770	          0.10344570	          0.00999999	
          0.85898760	         -5.83577450	         -2.63124531	          6.38376313	          1.55674539	          0.92161144	         -0.00260987	         34.10530669	          1.20693693	         -6.62431598	        -29.41452874	          5.93938379	          0.68464936	        -16.43737834	         -3.76784941	         -6.00190126	        -18.61939890	         -9.69486947	         45.07916890	         -8.17910463	          4.57930739	        -14.82600596	          0.14568250	          0.04465915	          0.00999999	          0.24914285	          0.33362729	          0.27865060	          0.11977910	          0.22337621	          0.13416651	          0.00999999	          0.45179153	          0.00999999	          0.01137657	          0.57926359	          0.29429425	          0.00999999	          0.00999999	          0.00999999	          0.30147033	          0.06083665	          0.21902204	          0.00999999	          0.56329500	          0.03950833	          0.01017037	          0.18860470	          0.09092863	          0.00999999	
          0.86724710	         -5.77118013	         -2.73685280	          6.18567477	          1.57380200	          0.91886822	         -0.00180342	         33.78019587	          1.50108977	         -6.54691094	        -31.22007568	          8.10292811	          1.34352042	        -15.54853703	         -4.16840589	         -6.37796979	        -22.08475149	        -10.51792209	         44.59398076	         -7.94179518	          4.85553855	        -14.84171147	          0.12805471	          0.03925533	          0.00999999	          0.30925521	          0.29325791	          0.24493348	          0.10528565	          0.19634737	          0.11793217	          0.00999999	          0.59460136	          0.00999999	          0.00999999	          0.50917187	          0.29982383	          0.00999999	          0.00999999	          0.00999999	          0.43920457	          0.05347533	          0.19252006	          0.00999999	          0.49513550	          0.03472777	          0.00999999	          0.16578327	          0.07992613	          0.00999999	
          0.87550660	         -5.71436492	         -2.85178504	          5.95409788	          1.59044244	          0.91687038	         -0.00097783	         33.29565375	          1.83272908	         -6.44853639	        -32.65513482	         10.10694887	          2.10527105	        -14.34790281	         -4.60653096	         -6.73784629	        -25.90561335	        -11.65017961	         43.51589192	         -7.75340754	          5.13914318	        -14.78845705	          0.11255991	          0.03450538	          0.00999999	          0.34612772	          0.28107050	          0.21529618	          0.09254594	          0.17258906	          0.10366221	          0.00999999	          0.68057899	          0.00999999	          0.00999999	          0.44756135	          0.29894647	          0.00999999	          0.00999999	          0.00999999	          0.49423575	          0.04700473	          0.16922486	          0.01174796	          0.43522340	          0.03052566	          0.00999999	          0.14572325	          0.07025496	          0.03446445	
